<svg width="204" height="64" viewBox="0 0 204 64" fill="none" xmlns="http://www.w3.org/2000/svg">
<path d="M28.0909 22C27.7159 20.8523 27.2216 19.8239 26.608 18.9148C26.0057 17.9943 25.2841 17.2102 24.4432 16.5625C23.6136 15.9148 22.6705 15.4205 21.6136 15.0795C20.5568 14.7386 19.3977 14.5682 18.1364 14.5682C16.0682 14.5682 14.1875 15.1023 12.4943 16.1705C10.8011 17.2386 9.45455 18.8125 8.45455 20.892C7.45455 22.9716 6.95455 25.5227 6.95455 28.5455C6.95455 31.5682 7.46023 34.1193 8.47159 36.1989C9.48295 38.2784 10.8523 39.8523 12.5795 40.9205C14.3068 41.9886 16.25 42.5227 18.4091 42.5227C20.4091 42.5227 22.1705 42.0966 23.6932 41.2443C25.2273 40.3807 26.4205 39.1648 27.2727 37.5966C28.1364 36.017 28.5682 34.1591 28.5682 32.0227L29.8636 32.2955H19.3636V28.5455H32.6591V32.2955C32.6591 35.1705 32.0455 37.6705 30.8182 39.7955C29.6023 41.9205 27.9205 43.5682 25.7727 44.7386C23.6364 45.8977 21.1818 46.4773 18.4091 46.4773C15.3182 46.4773 12.6023 45.75 10.2614 44.2955C7.93182 42.8409 6.11364 40.7727 4.80682 38.0909C3.51136 35.4091 2.86364 32.2273 2.86364 28.5455C2.86364 25.7841 3.23295 23.3011 3.97159 21.0966C4.72159 18.8807 5.77841 16.9943 7.14205 15.4375C8.50568 13.8807 10.1193 12.6875 11.983 11.858C13.8466 11.0284 15.8977 10.6136 18.1364 10.6136C19.9773 10.6136 21.6932 10.892 23.2841 11.4489C24.8864 11.9943 26.3125 12.7727 27.5625 13.7841C28.8239 14.7841 29.875 15.983 30.7159 17.3807C31.5568 18.767 32.1364 20.3068 32.4545 22H28.0909ZM38.7401 46V24.1818H41.9787V27.4773H42.206C42.6037 26.3977 43.3234 25.5218 44.3651 24.8494C45.4067 24.1771 46.581 23.8409 47.8878 23.8409C48.134 23.8409 48.4418 23.8456 48.8111 23.8551C49.1804 23.8646 49.4598 23.8788 49.6491 23.8977V27.3068C49.5355 27.2784 49.2751 27.2358 48.8679 27.179C48.4702 27.1127 48.0488 27.0795 47.6037 27.0795C46.5431 27.0795 45.5961 27.3021 44.7628 27.7472C43.9389 28.1828 43.2855 28.7888 42.8026 29.5653C42.3291 30.3324 42.0923 31.2083 42.0923 32.1932V46H38.7401ZM60.0433 46.5114C58.6607 46.5114 57.406 46.2509 56.2791 45.7301C55.1522 45.1998 54.2573 44.4375 53.5945 43.4432C52.9316 42.4394 52.6001 41.2273 52.6001 39.8068C52.6001 38.5568 52.8464 37.5436 53.3388 36.767C53.8312 35.9811 54.4893 35.3655 55.3132 34.9205C56.1371 34.4754 57.0462 34.1439 58.0405 33.9261C59.0443 33.6989 60.0528 33.5189 61.0661 33.3864C62.3918 33.2159 63.4666 33.0881 64.2905 33.0028C65.1238 32.9081 65.7299 32.7519 66.1087 32.5341C66.4969 32.3163 66.6911 31.9375 66.6911 31.3977V31.2841C66.6911 29.8826 66.3075 28.7936 65.5405 28.017C64.7829 27.2405 63.6323 26.8523 62.0888 26.8523C60.4884 26.8523 59.2337 27.2027 58.3246 27.9034C57.4155 28.6042 56.7763 29.3523 56.407 30.1477L53.2251 29.0114C53.7933 27.6856 54.5509 26.6534 55.4979 25.9148C56.4543 25.1667 57.496 24.6458 58.6229 24.3523C59.7592 24.0492 60.8767 23.8977 61.9751 23.8977C62.6759 23.8977 63.4808 23.983 64.3899 24.1534C65.3085 24.3144 66.1939 24.6506 67.0462 25.1619C67.9079 25.6733 68.6229 26.4451 69.1911 27.4773C69.7592 28.5095 70.0433 29.892 70.0433 31.625V46H66.6911V43.0455H66.5206C66.2933 43.5189 65.9145 44.0256 65.3842 44.5653C64.8539 45.1051 64.1484 45.5644 63.2678 45.9432C62.3871 46.322 61.3123 46.5114 60.0433 46.5114ZM60.5547 43.5C61.8804 43.5 62.9979 43.2396 63.907 42.7188C64.8255 42.1979 65.5168 41.5256 65.9808 40.7017C66.4543 39.8778 66.6911 39.0114 66.6911 38.1023V35.0341C66.549 35.2045 66.2365 35.3608 65.7536 35.5028C65.2801 35.6354 64.7308 35.7538 64.1058 35.858C63.4903 35.9527 62.889 36.0379 62.3018 36.1136C61.7242 36.1799 61.2554 36.2367 60.8956 36.2841C60.0244 36.3977 59.21 36.5824 58.4524 36.8381C57.7043 37.0843 57.0982 37.4583 56.6342 37.9602C56.1797 38.4527 55.9524 39.125 55.9524 39.9773C55.9524 41.142 56.3833 42.0227 57.245 42.6193C58.1162 43.2064 59.2195 43.5 60.5547 43.5ZM85.0256 46.4545C83.0559 46.4545 81.3277 45.9858 79.8409 45.0483C78.3636 44.1108 77.2083 42.7992 76.375 41.1136C75.5511 39.428 75.1392 37.4583 75.1392 35.2045C75.1392 32.9318 75.5511 30.9479 76.375 29.2528C77.2083 27.5578 78.3636 26.2415 79.8409 25.304C81.3277 24.3665 83.0559 23.8977 85.0256 23.8977C86.9953 23.8977 88.7188 24.3665 90.196 25.304C91.6828 26.2415 92.8381 27.5578 93.6619 29.2528C94.4953 30.9479 94.9119 32.9318 94.9119 35.2045C94.9119 37.4583 94.4953 39.428 93.6619 41.1136C92.8381 42.7992 91.6828 44.1108 90.196 45.0483C88.7188 45.9858 86.9953 46.4545 85.0256 46.4545ZM85.0256 43.4432C86.5218 43.4432 87.7528 43.0597 88.7188 42.2926C89.6847 41.5256 90.3996 40.517 90.8636 39.267C91.3277 38.017 91.5597 36.6629 91.5597 35.2045C91.5597 33.7462 91.3277 32.3873 90.8636 31.1278C90.3996 29.8684 89.6847 28.8504 88.7188 28.0739C87.7528 27.2973 86.5218 26.9091 85.0256 26.9091C83.5294 26.9091 82.2983 27.2973 81.3324 28.0739C80.3665 28.8504 79.6515 29.8684 79.1875 31.1278C78.7235 32.3873 78.4915 33.7462 78.4915 35.2045C78.4915 36.6629 78.7235 38.017 79.1875 39.267C79.6515 40.517 80.3665 41.5256 81.3324 42.2926C82.2983 43.0597 83.5294 43.4432 85.0256 43.4432Z" fill="#67A22D"/>
<path d="M112.302 19.8182V23.2273H98.1882V19.8182H112.302ZM102.415 46V16.2045C102.415 14.7045 102.768 13.4545 103.472 12.4545C104.177 11.4545 105.092 10.7045 106.217 10.2045C107.342 9.70454 108.529 9.45454 109.779 9.45454C110.768 9.45454 111.575 9.53409 112.2 9.69318C112.825 9.85227 113.29 10 113.597 10.1364L112.438 13.6136C112.234 13.5455 111.95 13.4602 111.586 13.358C111.234 13.2557 110.768 13.2045 110.188 13.2045C108.859 13.2045 107.898 13.5398 107.308 14.2102C106.728 14.8807 106.438 15.8636 106.438 17.1591V46H102.415ZM184.029 46.5455C181.847 46.5455 179.921 45.9943 178.251 44.892C176.58 43.7784 175.273 42.2102 174.33 40.1875C173.387 38.1534 172.915 35.75 172.915 32.9773C172.915 30.2273 173.387 27.8409 174.33 25.8182C175.273 23.7955 176.586 22.233 178.268 21.1307C179.95 20.0284 181.893 19.4773 184.097 19.4773C185.802 19.4773 187.148 19.7614 188.137 20.3295C189.137 20.8864 189.898 21.5227 190.421 22.2386C190.955 22.9432 191.37 23.5227 191.665 23.9773H192.006V11.0909H196.029V46H192.143V41.9773H191.665C191.37 42.4545 190.95 43.0568 190.404 43.7841C189.859 44.5 189.08 45.142 188.069 45.7102C187.058 46.267 185.711 46.5455 184.029 46.5455ZM184.575 42.9318C186.188 42.9318 187.552 42.5114 188.665 41.6705C189.779 40.8182 190.626 39.642 191.205 38.142C191.785 36.6307 192.075 34.8864 192.075 32.9091C192.075 30.9545 191.79 29.2443 191.222 27.7784C190.654 26.3011 189.813 25.1534 188.7 24.3352C187.586 23.5057 186.211 23.0909 184.575 23.0909C182.87 23.0909 181.45 23.5284 180.313 24.4034C179.188 25.267 178.342 26.4432 177.773 27.9318C177.217 29.4091 176.938 31.0682 176.938 32.9091C176.938 34.7727 177.222 36.4659 177.79 37.9886C178.37 39.5 179.222 40.7045 180.347 41.6023C181.484 42.4886 182.893 42.9318 184.575 42.9318Z" fill="#F95E07"/>
<path d="M127.498 46.5455C125.134 46.5455 123.06 45.983 121.276 44.858C119.504 43.733 118.117 42.1591 117.117 40.1364C116.129 38.1136 115.634 35.75 115.634 33.0455C115.634 30.3182 116.129 27.9375 117.117 25.9034C118.117 23.8693 119.504 22.2898 121.276 21.1648C123.06 20.0398 125.134 19.4773 127.498 19.4773C129.862 19.4773 131.93 20.0398 133.702 21.1648C135.487 22.2898 136.873 23.8693 137.862 25.9034C138.862 27.9375 139.362 30.3182 139.362 33.0455C139.362 35.75 138.862 38.1136 137.862 40.1364C136.873 42.1591 135.487 43.733 133.702 44.858C131.93 45.983 129.862 46.5455 127.498 46.5455ZM127.498 42.9318C129.293 42.9318 130.771 42.4716 131.93 41.5511C133.089 40.6307 133.947 39.4205 134.504 37.9205C135.06 36.4205 135.339 34.7955 135.339 33.0455C135.339 31.2955 135.06 29.6648 134.504 28.1534C133.947 26.642 133.089 25.4205 131.93 24.4886C130.771 23.5568 129.293 23.0909 127.498 23.0909C125.702 23.0909 124.225 23.5568 123.066 24.4886C121.907 25.4205 121.049 26.642 120.492 28.1534C119.935 29.6648 119.657 31.2955 119.657 33.0455C119.657 34.7955 119.935 36.4205 120.492 37.9205C121.049 39.4205 121.907 40.6307 123.066 41.5511C124.225 42.4716 125.702 42.9318 127.498 42.9318ZM156.138 46.5455C153.775 46.5455 151.701 45.983 149.917 44.858C148.144 43.733 146.758 42.1591 145.758 40.1364C144.769 38.1136 144.275 35.75 144.275 33.0455C144.275 30.3182 144.769 27.9375 145.758 25.9034C146.758 23.8693 148.144 22.2898 149.917 21.1648C151.701 20.0398 153.775 19.4773 156.138 19.4773C158.502 19.4773 160.57 20.0398 162.343 21.1648C164.127 22.2898 165.513 23.8693 166.502 25.9034C167.502 27.9375 168.002 30.3182 168.002 33.0455C168.002 35.75 167.502 38.1136 166.502 40.1364C165.513 42.1591 164.127 43.733 162.343 44.858C160.57 45.983 158.502 46.5455 156.138 46.5455ZM156.138 42.9318C157.934 42.9318 159.411 42.4716 160.57 41.5511C161.729 40.6307 162.587 39.4205 163.144 37.9205C163.701 36.4205 163.979 34.7955 163.979 33.0455C163.979 31.2955 163.701 29.6648 163.144 28.1534C162.587 26.642 161.729 25.4205 160.57 24.4886C159.411 23.5568 157.934 23.0909 156.138 23.0909C154.343 23.0909 152.866 23.5568 151.707 24.4886C150.548 25.4205 149.69 26.642 149.133 28.1534C148.576 29.6648 148.298 31.2955 148.298 33.0455C148.298 34.7955 148.576 36.4205 149.133 37.9205C149.69 39.4205 150.548 40.6307 151.707 41.5511C152.866 42.4716 154.343 42.9318 156.138 42.9318Z" fill="black"/>
<circle cx="128.588" cy="33.4125" r="3.0375" fill="black"/>
<circle cx="156.938" cy="33.4125" r="3.0375" fill="black"/>
<path d="M146.813 51.6375C144.788 53.6625 145.173 53.1562 143.775 53.1562C141.244 53.6625 141.75 53.3151 141.75 51.6375C141.75 49.9599 142.883 48.6 144.281 48.6C145.679 48.6 146.813 49.9599 146.813 51.6375Z" fill="#67A22D"/>
<path d="M128.081 55.1813L131.119 58.725L135.169 61.2563L140.231 62.775H145.294L149.85 62.2688L154.406 61.2563L157.95 58.725L160.988 55.1813" stroke="black" stroke-width="1.5" stroke-linecap="round"/>
</svg>
